<?xml version="1.0" encoding="utf-8"?>
<!-- Generator: Adobe Illustrator 23.0.0, SVG Export Plug-In . SVG Version: 6.00 Build 0)  -->
<svg version="1.1" id="Layer_1" xmlns="http://www.w3.org/2000/svg" xmlns:xlink="http://www.w3.org/1999/xlink" x="0px" y="0px"
	 viewBox="0 0 60 60" style="enable-background:new 0 0 60 60;" xml:space="preserve">
<style type="text/css">
	.st0{fill:#FFFFFF;}
</style>
<g>
	<path class="st0" d="M45.9,32.5c-0.3,2.5-1.2,4.8-2.5,6.9c-4.9,7.4-14.8,9.5-22.1,4.6C29.8,41,38.1,37.1,45.9,32.5z"/>
	<path class="st0" d="M18,35.5c0.2,0.5,0.8,0.8,1.3,0.6s0.8-0.8,0.5-1.3c-0.7-1.7-1-3.6-0.8-5.4c0.1-0.5-0.3-1-0.9-1.1
		c-0.5-0.1-1,0.3-1.1,0.9C16.8,31.3,17.1,33.5,18,35.5z M45.2,25.8C36.3,31.5,26.6,36,16.5,39.2c-0.8-1.2-1.3-2.4-1.8-3.8
		C12,27,16.7,18,25.1,15.3C33.6,12.7,42.6,17.3,45.2,25.8z M18.7,26.3c0.5,0.2,1.1,0,1.3-0.5c0.3-0.5,0.6-1.1,0.9-1.6
		s0.2-1.1-0.2-1.4c-0.5-0.3-1.1-0.2-1.4,0.2c-0.4,0.6-0.8,1.2-1.1,1.9C18,25.5,18.2,26.1,18.7,26.3z"/>
	<g>
		<path class="st0" d="M55.9,19c-0.9-2.1-4.2-2.4-10.4-1c-0.9,0.2-1.9,0.5-2.9,0.7c0.6,0.7,1.2,1.4,1.8,2.1c3.3-0.9,5.8-1.2,7.4-1.2
			c0.9,0,1.6,0.1,1.8,0.4c0.1,1.6-7.3,7.9-22.2,14.6c-15,6.7-24.7,8-25.7,6.8C5.6,40.5,8,38,12.9,34.8c-0.2-0.9-0.3-1.8-0.4-2.7
			c-1,0.7-2,1.3-2.9,1.9c-5.1,3.6-7.1,6.3-6.2,8.4c0.6,1.3,2.2,1.8,4.4,1.8c6.2,0,17.4-4.1,24.6-7.3C42.1,32.6,58.1,23.9,55.9,19z"
			/>
	</g>
</g>
<g>
	<path class="st0" d="M9.9,29c0,0.1,0,0.1,0,0.2c0,0.1,0,0.1,0,0.2l1.7,0.2l-0.1,0.8l-4.5-0.5l0.2-1.3c0-0.2,0.1-0.4,0.1-0.6
		c0-0.2,0.1-0.3,0.1-0.4C7.6,27.4,7.7,27.2,8,27c0.2-0.1,0.5-0.2,0.8-0.2c0.2,0,0.4,0.1,0.6,0.2c0.2,0.1,0.3,0.3,0.4,0.4
		s0.2,0.4,0.2,0.7C10,28.4,10,28.7,9.9,29z M9.2,29.4c0,0,0-0.1,0-0.2c0-0.1,0-0.1,0-0.2c0-0.2,0-0.4,0-0.6c0-0.2-0.1-0.3-0.1-0.4
		S9,27.9,9,27.8c-0.1-0.1-0.2-0.1-0.3-0.1c-0.1,0-0.2,0-0.4,0c-0.1,0-0.2,0.1-0.3,0.3C8,28.1,8,28.2,8,28.3c0,0.1,0,0.3-0.1,0.4
		l-0.1,0.5L9.2,29.4z"/>
	<path class="st0" d="M8.1,24.4l3.6,1.2l0.7-2l0.7,0.2l-0.9,2.8l-4.3-1.4L8.1,24.4z"/>
	<path class="st0" d="M13.5,20.5L12.7,22l0.8,1L13,23.7l-3-3.8l0.4-0.7l4.8,0.7l-0.4,0.8L13.5,20.5z M11.1,20.1
		c0.3,0.4,0.6,0.7,0.8,1l0.3,0.3l0.6-1l-0.4-0.1C12,20.3,11.6,20.2,11.1,20.1L11.1,20.1z"/>
	<path class="st0" d="M14.4,17.1l-0.6-2.2l0.6-0.7l0.9,3.1l1.3,1.2L16,19.1l-1.3-1.2l-3.1-0.5l0.6-0.7L14.4,17.1L14.4,17.1z"/>
	<path class="st0" d="M20.3,13.4l-0.9,0.5l-0.4-0.6l1.6-1l1.2,1.9c0,0.1-0.1,0.1-0.2,0.2s-0.2,0.2-0.3,0.2c-0.1,0.1-0.2,0.2-0.3,0.3
		c-0.1,0.1-0.2,0.2-0.3,0.2c-0.3,0.2-0.7,0.4-1,0.4c-0.3,0.1-0.6,0.1-0.9,0c-0.3-0.1-0.5-0.2-0.8-0.4c-0.2-0.2-0.4-0.4-0.6-0.7
		c-0.1-0.2-0.2-0.4-0.3-0.6c-0.1-0.2-0.1-0.4-0.1-0.6s0-0.4,0.1-0.6c0-0.2,0.1-0.4,0.2-0.6c0.1-0.2,0.2-0.4,0.4-0.5
		c0.2-0.2,0.4-0.3,0.6-0.4c0.2-0.1,0.4-0.2,0.6-0.3c0.2-0.1,0.4-0.1,0.5-0.2l0.4,0.6c-0.2,0-0.4,0.1-0.5,0.2
		c-0.2,0.1-0.3,0.2-0.5,0.2c-0.2,0.1-0.4,0.3-0.5,0.5s-0.2,0.4-0.3,0.6c-0.1,0.2-0.1,0.4,0,0.6c0,0.2,0.1,0.5,0.3,0.7
		c0.3,0.5,0.6,0.7,1,0.8s0.8,0,1.2-0.3c0.1,0,0.2-0.1,0.2-0.2s0.1-0.1,0.2-0.2L20.3,13.4z"/>
	<path class="st0" d="M24.8,10.1c0.1,0.3,0.1,0.6,0,0.8s-0.3,0.5-0.6,0.7l0,0L26,13l-0.9,0.3l-1.7-1.3l-0.5,0.2l0.6,1.6l-0.8,0.3
		l-1.4-4.3l1.3-0.4c0.2-0.1,0.4-0.1,0.6-0.2s0.4-0.1,0.5-0.1c0.3,0,0.5,0.1,0.7,0.2C24.5,9.6,24.7,9.8,24.8,10.1z M23,11.5
		c0.2-0.1,0.3-0.1,0.4-0.2c0.1-0.1,0.2-0.1,0.3-0.2c0.1-0.1,0.2-0.2,0.2-0.4c0-0.1,0-0.3,0-0.4c0-0.1-0.1-0.2-0.2-0.3
		S23.6,10,23.5,10c-0.1,0-0.2,0-0.3,0c-0.1,0-0.3,0.1-0.4,0.1l-0.6,0.2l0.4,1.3L23,11.5z"/>
	<path class="st0" d="M30.5,10.4c0,0.3,0,0.7-0.1,1c-0.1,0.3-0.2,0.5-0.4,0.8c-0.2,0.2-0.4,0.4-0.6,0.5c-0.3,0.1-0.6,0.2-0.9,0.2
		c-0.3,0-0.7,0-0.9-0.1c-0.3-0.1-0.5-0.2-0.7-0.4c-0.2-0.2-0.4-0.4-0.5-0.7c-0.1-0.3-0.2-0.6-0.2-0.9s0-0.7,0.1-1
		c0.1-0.3,0.2-0.5,0.4-0.8s0.4-0.4,0.6-0.5c0.3-0.1,0.6-0.2,0.9-0.2c0.3,0,0.7,0,0.9,0.1c0.3,0.1,0.5,0.2,0.7,0.4
		c0.2,0.2,0.4,0.4,0.5,0.7C30.3,9.7,30.4,10,30.5,10.4z M29.6,10.4c0-0.3-0.1-0.5-0.2-0.7c-0.1-0.2-0.2-0.4-0.3-0.5S28.8,9,28.7,9
		c-0.2-0.1-0.4-0.1-0.5-0.1c-0.2,0-0.4,0.1-0.5,0.1c-0.2,0.1-0.3,0.2-0.4,0.3S27,9.7,27,9.9c-0.1,0.2-0.1,0.5,0,0.7
		c0,0.3,0.1,0.5,0.2,0.7c0.1,0.2,0.2,0.4,0.3,0.5s0.3,0.2,0.4,0.3c0.2,0.1,0.4,0.1,0.5,0.1c0.2,0,0.4-0.1,0.5-0.1
		c0.2-0.1,0.3-0.2,0.4-0.3c0.1-0.1,0.2-0.3,0.2-0.5C29.6,10.9,29.6,10.7,29.6,10.4z"/>
	<path class="st0" d="M33.1,13.1c-0.2,0-0.4-0.1-0.6-0.2s-0.3-0.2-0.5-0.3s-0.2-0.2-0.3-0.4c-0.1-0.1-0.1-0.3-0.2-0.5
		c0-0.1,0-0.3,0-0.4s0-0.3,0.1-0.5L32,8.2l0.8,0.1l-0.4,2.5c-0.1,0.3-0.1,0.6,0,0.8c0.1,0.2,0.1,0.4,0.3,0.5
		c0.1,0.1,0.3,0.2,0.5,0.2c0.2,0,0.4,0,0.6,0s0.3-0.2,0.4-0.4c0.1-0.2,0.2-0.4,0.2-0.7l0.4-2.5l0.8,0.1l-0.4,2.6
		c0,0.2-0.1,0.4-0.1,0.5c0,0.1-0.1,0.3-0.2,0.4c-0.1,0.1-0.2,0.3-0.3,0.4c-0.1,0.1-0.3,0.2-0.4,0.2c-0.2,0.1-0.3,0.1-0.5,0.1
		C33.5,13.1,33.3,13.1,33.1,13.1z"/>
	<path class="st0" d="M38.8,12.2c0.1,0.6,0.2,1,0.2,1.4l0,0c0.2-0.5,0.4-0.9,0.5-1.2l0.8-1.9l0.8,0.3l-1.8,4.1l-0.8-0.3L38,12.3
		c-0.1-0.4-0.2-0.9-0.2-1.5l0,0c-0.2,0.5-0.4,0.9-0.5,1.2l-0.8,1.9l-0.8-0.3l1.8-4.1l0.8,0.3L38.8,12.2z"/>
	<path class="st0" d="M40,15.5l2.8-3.5l0.9,0.7c0.1,0.1,0.2,0.1,0.2,0.2s0.2,0.1,0.2,0.2c0.1,0.1,0.1,0.1,0.2,0.2
		c0.1,0.1,0.1,0.1,0.2,0.2c0.1,0.2,0.2,0.4,0.3,0.6s0.1,0.4,0.1,0.6c0,0.2-0.1,0.4-0.1,0.6c-0.1,0.2-0.2,0.4-0.4,0.6
		c-0.1,0.2-0.3,0.4-0.5,0.5c-0.2,0.1-0.4,0.2-0.6,0.3S43,17,42.8,17c-0.2,0-0.4,0-0.7-0.1c-0.2-0.1-0.4-0.2-0.6-0.3
		c-0.2-0.1-0.4-0.3-0.7-0.5L40,15.5z M41.3,15.7c0.4,0.3,0.7,0.5,1,0.5c0.3,0.1,0.5,0,0.7-0.1c0.2-0.1,0.5-0.3,0.7-0.6
		c0.1-0.1,0.2-0.3,0.3-0.4c0.1-0.1,0.1-0.3,0.1-0.4c0-0.1,0-0.3,0-0.4c0-0.1-0.1-0.3-0.2-0.4c-0.1-0.1-0.2-0.2-0.3-0.3
		c-0.1-0.1-0.2-0.2-0.4-0.4L43,13L41,15.5L41.3,15.7z"/>
</g>
<g>
	<path class="st0" d="M29.3,51.8c0-0.1,0-0.2-0.1-0.3c-0.1-0.1-0.1-0.1-0.2-0.2s-0.2-0.1-0.3-0.1s-0.2-0.1-0.4-0.1
		c-0.2,0-0.3-0.1-0.5-0.2c-0.2-0.1-0.3-0.1-0.4-0.2c-0.1-0.1-0.2-0.2-0.3-0.4C27,50.2,27,50,27,49.8c0-0.2,0.1-0.5,0.2-0.6
		c0.1-0.2,0.2-0.3,0.4-0.4c0.2-0.1,0.3-0.2,0.5-0.2s0.4-0.1,0.7-0.1c0.2,0,0.5,0,0.7,0.1c0.2,0.1,0.5,0.1,0.6,0.2l0,0.7
		c-0.2-0.1-0.5-0.2-0.7-0.2c-0.2-0.1-0.4-0.1-0.6-0.1c-0.3,0-0.5,0-0.6,0.1c-0.2,0.1-0.2,0.2-0.2,0.4c0,0.1,0,0.2,0.1,0.3
		c0,0.1,0.1,0.1,0.2,0.2c0.1,0.1,0.2,0.1,0.3,0.1c0.1,0,0.2,0.1,0.3,0.1c0.2,0.1,0.4,0.1,0.5,0.2c0.2,0.1,0.3,0.1,0.5,0.2
		c0.1,0.1,0.2,0.2,0.3,0.4c0.1,0.2,0.1,0.4,0.1,0.6c0,0.2-0.1,0.5-0.2,0.6c-0.1,0.2-0.2,0.3-0.4,0.4c-0.2,0.1-0.4,0.2-0.6,0.2
		c-0.2,0-0.5,0.1-0.8,0c-0.2,0-0.5-0.1-0.7-0.1c-0.2-0.1-0.4-0.1-0.6-0.2l0-0.7c0.2,0.1,0.4,0.2,0.6,0.2c0.2,0.1,0.4,0.1,0.7,0.1
		c0.1,0,0.3,0,0.4,0s0.2,0,0.4-0.1c0.1,0,0.2-0.1,0.3-0.2S29.2,52,29.3,51.8z"/>
	<path class="st0" d="M33.8,52.8L33,52.9l-0.6-3.8l-1.5,0.2l-0.1-0.7l3.7-0.6l0.1,0.7l-1.5,0.2L33.8,52.8z"/>
	<path class="st0" d="M38.7,51.4c-0.2,0.1-0.4,0.2-0.6,0.2s-0.4,0-0.5,0c-0.2,0-0.3-0.1-0.5-0.2c-0.1-0.1-0.3-0.2-0.4-0.3
		c-0.1-0.1-0.2-0.2-0.3-0.4c-0.1-0.1-0.2-0.3-0.2-0.5l-1-2.5l0.8-0.3l1,2.4c0.1,0.3,0.3,0.5,0.4,0.7c0.2,0.2,0.3,0.2,0.5,0.3
		c0.2,0,0.4,0,0.6-0.1s0.4-0.2,0.5-0.4s0.2-0.3,0.2-0.6c0-0.2-0.1-0.4-0.2-0.7l-1-2.4l0.8-0.3l1,2.5c0.1,0.2,0.1,0.3,0.2,0.5
		c0,0.2,0.1,0.3,0.1,0.4c0,0.2,0,0.3-0.1,0.5s-0.1,0.3-0.2,0.4c-0.1,0.1-0.2,0.3-0.4,0.4S38.9,51.3,38.7,51.4z"/>
	<path class="st0" d="M42.3,49.5l-2.8-3.6l1-0.7c0.1-0.1,0.2-0.1,0.3-0.2c0.1-0.1,0.2-0.1,0.3-0.2s0.2-0.1,0.3-0.1s0.2-0.1,0.3-0.1
		c0.2-0.1,0.5-0.1,0.7-0.1c0.2,0,0.4,0,0.7,0.1c0.2,0.1,0.4,0.2,0.6,0.3s0.4,0.3,0.5,0.5c0.1,0.2,0.3,0.4,0.4,0.6
		c0.1,0.2,0.1,0.4,0.2,0.6c0,0.2,0,0.4-0.1,0.6c-0.1,0.2-0.1,0.4-0.3,0.6c-0.1,0.2-0.3,0.4-0.4,0.5c-0.2,0.2-0.4,0.4-0.6,0.5
		L42.3,49.5z M42.8,48.2c0.4-0.3,0.7-0.6,0.8-0.9c0.1-0.2,0.2-0.5,0.1-0.8s-0.2-0.5-0.4-0.8c-0.1-0.1-0.2-0.3-0.4-0.4
		c-0.1-0.1-0.3-0.2-0.4-0.2c-0.1,0-0.3-0.1-0.4-0.1s-0.3,0-0.4,0.1c-0.1,0-0.3,0.1-0.4,0.2c-0.1,0.1-0.3,0.2-0.4,0.3l-0.3,0.2
		l1.9,2.5L42.8,48.2z"/>
	<path class="st0" d="M46.6,45.8l-3.4-3.1l0.6-0.6l3.4,3.1L46.6,45.8z"/>
	<path class="st0" d="M48.7,38.9c0.3,0.2,0.5,0.4,0.7,0.6s0.3,0.5,0.4,0.8c0.1,0.3,0.1,0.6,0.1,0.9s-0.2,0.6-0.3,0.9
		c-0.2,0.3-0.4,0.5-0.6,0.7s-0.5,0.3-0.8,0.3c-0.3,0.1-0.6,0-0.9,0c-0.3-0.1-0.6-0.2-0.9-0.4s-0.5-0.4-0.7-0.6
		c-0.2-0.2-0.3-0.5-0.4-0.8c-0.1-0.3-0.1-0.6-0.1-0.9s0.2-0.6,0.3-0.9s0.4-0.5,0.6-0.7c0.2-0.2,0.5-0.3,0.8-0.3c0.3-0.1,0.6,0,0.9,0
		C48.1,38.6,48.4,38.7,48.7,38.9z M48.3,39.7c-0.2-0.1-0.5-0.2-0.7-0.3c-0.2,0-0.4-0.1-0.6,0c-0.2,0-0.3,0.1-0.5,0.2
		c-0.1,0.1-0.3,0.2-0.4,0.4c-0.1,0.2-0.2,0.3-0.2,0.5c0,0.2,0,0.4,0,0.5c0.1,0.2,0.2,0.3,0.3,0.5c0.1,0.2,0.3,0.3,0.6,0.5
		c0.2,0.1,0.5,0.2,0.7,0.3c0.2,0.1,0.4,0.1,0.6,0s0.3-0.1,0.5-0.2c0.1-0.1,0.3-0.2,0.4-0.4s0.2-0.3,0.2-0.5s0-0.4,0-0.5
		c-0.1-0.2-0.2-0.3-0.3-0.5S48.5,39.8,48.3,39.7z"/>
</g>
</svg>
